/* XPM */
static char * immudex_sdk_xpm[] = {
"50 17 17 1",
" 	c None",
".	c #D70E53",
"+	c #D71153",
"@	c #D81B57",
"#	c #D71053",
"$	c #D70851",
"%	c #D70F53",
"&	c #D70B52",
"*	c #D70951",
"=	c #D70C52",
"-	c #D70751",
";	c #D70A52",
">	c #D70D52",
",	c #000000",
"'	c #D71454",
")	c #D71254",
"!	c #D81555",
"     .+@                                          ",
"   #$$%&&*=                                       ",
"  .-=     &-                                      ",
"  *        ;$                                     ",
" &          >    ,,,,,                            ",
" =          &  ,,,,,,,  ,,,                  ,,,  ",
".           =  ,,    ,  ,,,                  ,,,  ",
"&           '  ,,,     ,,,,,, ,,,,,,   ,,,,,,,,,,,",
".    )      !  ,,,,,,   ,,,       ,,,  ,,,,, ,,,  ",
"=     +    )    ,,,,,,  ,,,    ,,,,,,  ,,    ,,,  ",
" %     ! )#        ,,,, ,,,   ,,, ,,,  ,,    ,,,  ",
" *             ,    ,,, ,,,   ,,  ,,,  ,,    ,,,  ",
" >.            ,,,,,,,  ,,,,  ,,,,,,,  ,,    ,,,, ",
"  &            ,,,,,,    ,,,, ,,,,,,   ,,     ,,,,",
"   >                                              ",
"    %                                             ",
"                                                  "};
